<?xml version="1.0" encoding="UTF-8" standalone="no"?>
<!-- Created with Inkscape (http://www.inkscape.org/) -->

<svg
   width="30.863976mm"
   height="30.863111mm"
   viewBox="0 0 30.863976 30.863111"
   version="1.1"
   id="svg1"
   xml:space="preserve"
   xmlns="http://www.w3.org/2000/svg"
   xmlns:svg="http://www.w3.org/2000/svg"><defs
     id="defs1" /><g
     id="layer1"
     transform="translate(-267.54623,-128.41883)"><g
       id="g5"><g
         id="g827"
         transform="matrix(0.43540639,0,0,0.43540639,293.6012,134.03317)"
         style="stroke-width:2.2967"><path
           id="path2-6"
           d="m -12.7,-3.6986105 a 12.7,12.7 0 0 0 -12.7,12.7 12.7,12.7 0 0 0 1.198562,5.3511985 5.8208333,5.8097208 0 0 1 2.505604,-0.572029 5.8208333,5.8097208 0 0 1 5.820834,5.809456 5.8208333,5.8097208 0 0 1 -0.237596,1.630892 12.7,12.7 0 0 0 3.412596,0.480483 12.7,12.7 0 0 0 3.4125956,-0.480483 5.8208333,5.8097208 0 0 1 -0.237596,-1.630892 5.8208333,5.8097208 0 0 1 5.820833,-5.809456 5.8208333,5.8097208 0 0 1 2.50534,0.573616 A 12.7,12.7 0 0 0 -3.6388281e-7,9.0016545 12.7,12.7 0 0 0 -12.7,-3.6983459 Z"
           style="fill:#ffffff;stroke-width:14.8357" /><path
           id="path4"
           d="m -17.964679,20.646496 a 4.7625,4.7535041 0 0 1 -4.7625,4.753504 4.7625,4.7535041 0 0 1 -4.7625,-4.753504 4.7625,4.7535041 0 0 1 4.7625,-4.753239 4.7625,4.7535041 0 0 1 4.7625,4.753239 z m 20.0813456,0 a 4.7625,4.7535041 0 0 1 -4.7625,4.753504 4.7625,4.7535041 0 0 1 -4.7625,-4.753504 4.7625,4.7535041 0 0 1 4.7625,-4.753239 4.7625,4.7535041 0 0 1 4.7625,4.753239 z"
           style="fill:#ffffff;stroke-width:5.55775" /></g><path
         d="m 288.07155,128.41883 c -2.64847,0 -5.29801,1.00806 -7.3152,3.02498 -3.88699,3.887 -4.02801,10.11873 -0.42439,14.17691 l -1.04563,1.04351 0.87789,0.87789 1.04351,-1.04563 c 4.05818,3.60362 10.28965,3.4626 14.17691,-0.42439 4.0341,-4.03411 4.0341,-10.59392 0,-14.62829 -2.01692,-2.01718 -4.66461,-3.02498 -7.31309,-3.02498 z m 0,1.22978 c 2.41574,-0.002 4.73257,0.95935 6.43732,2.67097 3.56102,3.5613 3.56102,9.31598 0,12.87675 -3.41392,3.41391 -8.84264,3.55414 -12.42325,0.42227 l 0.0145,-0.0143 c -0.15734,-0.13633 -0.31001,-0.27796 -0.45773,-0.42465 -0.14437,-0.14573 -0.28379,-0.29628 -0.41804,-0.45138 l -0.0146,0.0148 c -3.13187,-3.58088 -2.99164,-9.0096 0.42228,-12.42352 1.70552,-1.71176 4.02304,-2.67303 6.43942,-2.67097 z m -10.39389,17.15638 -8.93233,8.93234 2.28997,2.28996 8.93233,-8.93233 -2.29023,-2.28997 z m -9.0715,10.54312 -1.05992,1.05807 0.87577,0.87577 1.05807,-1.05992 z"
         fill="#ffffff"
         id="path1"
         style="stroke-width:0.264583" /></g></g></svg>
